<svg width="14" height="14" viewBox="0 0 14 14" fill="none" xmlns="http://www.w3.org/2000/svg">
<path id="Vector" d="M7 0C3.1339 0 0 3.1339 0 7C0 10.8661 3.1339 14 7 14C10.8661 14 14 10.8661 14 7C14 3.1339 10.8661 0 7 0ZM9.8 7.7C8.6402 7.7 7.7 8.6402 7.7 9.8C7.7 10.1864 7.3864 10.5 7 10.5C6.6136 10.5 6.3 10.1864 6.3 9.8C6.3 8.6402 5.3598 7.7 4.2 7.7C3.8136 7.7 3.5 7.3864 3.5 7C3.5 6.6136 3.8136 6.3 4.2 6.3C5.3598 6.3 6.3 5.3598 6.3 4.2C6.3 3.8136 6.6136 3.5 7 3.5C7.3864 3.5 7.7 3.8136 7.7 4.2C7.7 5.3598 8.6402 6.3 9.8 6.3C10.1864 6.3 10.5 6.6136 10.5 7C10.5 7.3864 10.1864 7.7 9.8 7.7Z" fill="#FF4B3A"/>
</svg>
