<svg width="74" height="74" viewBox="0 0 74 74" fill="none" xmlns="http://www.w3.org/2000/svg">
<path d="M22.2577 13.2777L19.7238 21.1046C19.6084 21.4624 19.8043 21.8471 20.1621 21.9625C20.2321 21.9861 20.3036 21.9959 20.3711 21.9959C20.6598 21.9959 20.9265 21.8121 21.0192 21.525L23.9012 12.6174C27.9094 11.1097 32.3754 10.2535 37.0431 10.2535C37.2976 10.2535 37.5489 10.2738 37.8018 10.2787L34.845 21.1355C34.7466 21.4982 34.9605 21.8731 35.3216 21.9723C35.3818 21.9886 35.4436 21.9959 35.5021 21.9959C35.803 21.9959 36.077 21.7958 36.1592 21.495L39.2013 10.3234C44.1349 10.5999 48.7945 11.8132 52.8457 13.7461L50.3176 21.0916C50.1939 21.4478 50.3842 21.8365 50.7388 21.9577C50.8144 21.9837 50.8876 21.9951 50.9608 21.9951C51.243 21.9951 51.5081 21.8186 51.6048 21.5364L54.0753 14.3617C59.9367 17.4681 64.3613 22.126 66.1828 27.6451H7.9001C9.94689 21.4397 15.2814 16.319 22.2577 13.2777Z" fill="#F9BA8F"/>
<path d="M58.238 56.4108L58.2112 57.2857C58.2144 57.3183 58.2778 59.2846 56.8263 60.7995C55.7578 61.9144 54.1834 62.4804 52.148 62.4804C46.3134 62.4804 46.0361 57.3435 46.0329 57.2914V56.7978C46.0109 56.6515 45.6921 54.6982 43.0477 54.6982C40.6479 54.6982 40.4056 56.7791 40.3959 56.8678L40.3991 57.7623C40.2625 59.104 39.1769 61.5135 36.0258 61.5135C32.5828 61.5135 31.6167 59.0219 31.5866 57.7013V56.571C31.5866 54.3843 29.3398 54.2729 28.8885 54.2729H7.66509V61.0183C7.66509 63.1342 9.38498 64.8533 11.4993 64.8533H62.5828C64.6971 64.8533 66.4186 63.1342 66.4186 61.0183V54.4819H60.6182C58.4307 54.4827 58.2445 56.3303 58.238 56.4108Z" fill="#DEB198"/>
<path d="M7.66509 48.3952V52.9124H28.8567H28.86C29.1617 52.9124 30.0928 52.949 31.0027 53.3833C31.8916 53.8069 32.9503 54.7055 32.9503 56.5726V57.6891C32.9585 57.9233 33.1227 60.153 36.0266 60.153C38.754 60.153 39.0321 57.7915 39.0435 57.6915L39.0387 56.7986C39.1631 55.5537 40.1568 53.3353 43.0485 53.3353C46.1971 53.3353 47.2673 55.5537 47.3925 56.7255L47.3958 57.2662C47.4023 57.3915 47.6414 61.1167 52.1488 61.1167C53.7915 61.1167 55.03 60.6971 55.8326 59.8692C56.8857 58.7812 56.8507 57.3045 56.8491 57.2906L56.8792 56.327C56.9767 55.1934 57.8818 53.1206 60.619 53.1206H66.4195V48.3944L7.66509 48.3952Z" fill="#FAE58F"/>
<path d="M68.1142 40.9618H5.97123C4.14969 40.9618 2.66806 39.4818 2.66806 37.6619C2.66806 35.8404 4.14969 34.3571 5.97123 34.3571H68.1142C69.9341 34.3571 71.4157 35.8412 71.4157 37.6619C71.4149 39.4818 69.9341 40.9618 68.1142 40.9618Z" fill="#F16A6D"/>
<path d="M67.1025 30.0586H6.98446C6.40872 30.0586 5.86714 29.7911 5.52072 29.3333C5.17268 28.8771 5.05883 28.2826 5.21252 27.728C8.43193 16.0816 21.8202 7.62607 37.0447 7.62607C52.2676 7.62607 65.6534 16.0808 68.8745 27.7289C69.0274 28.2835 68.9135 28.8763 68.5655 29.3341C68.2174 29.7911 67.6767 30.0586 67.1025 30.0586ZM9.58178 26.3814H64.5052C60.6556 17.5169 49.5751 11.3041 37.0447 11.3041C24.5135 11.3041 13.4281 17.5169 9.58178 26.3814Z" fill="#1B2326"/>
<path d="M62.5828 67.2684H11.5017C7.99606 67.2684 5.14584 64.4174 5.14584 60.9126V53.4865C5.14584 52.4717 5.9696 51.6487 6.98446 51.6487H28.8584C31.4036 51.6487 34.1083 53.1564 34.1083 56.4661V57.5826C34.1498 58.1355 34.5165 58.8877 36.0282 58.8877C37.531 58.8877 37.8254 57.8834 37.8823 57.5378V56.6929C37.8823 56.6287 37.8856 56.5669 37.8921 56.5027C38.0758 54.7218 39.603 52.0716 43.0501 52.0716C47.0225 52.0716 48.3814 54.9674 48.5448 56.4961C48.5529 56.562 48.5562 56.6254 48.5562 56.6929V57.0963C48.6115 57.7899 49.0441 59.8538 52.1488 59.8538C53.4735 59.8538 54.4355 59.5489 55.0096 58.9495C55.6935 58.2372 55.6952 57.2467 55.6952 57.2378C55.6935 57.1914 55.6935 57.1459 55.6952 57.1003L55.7244 56.1847C55.7261 56.1522 55.7277 56.1188 55.7309 56.0831C55.8797 54.3859 57.3053 51.8577 60.6214 51.8577H67.1042C68.1206 51.8577 68.942 52.6823 68.942 53.6972V60.9134C68.9395 64.4174 66.0885 67.2684 62.5828 67.2684ZM8.82307 55.3243V60.9118C8.82307 62.3885 10.025 63.5904 11.5017 63.5904H62.5828C64.0596 63.5904 65.2631 62.3885 65.2631 60.9118V55.535H60.6198C59.6285 55.535 59.4326 56.0887 59.3968 56.3652L59.3724 57.1695C59.3765 57.6761 59.2951 59.792 57.6647 61.4948C56.3685 62.8455 54.5128 63.5302 52.148 63.5302C47.0046 63.5302 44.9814 59.7652 44.879 57.2329L44.8773 56.8352C44.7911 56.4278 44.4236 55.7472 43.0501 55.7472C41.8669 55.7472 41.6132 56.4856 41.5603 56.8092V57.6558C41.5603 57.7192 41.5571 57.7842 41.5506 57.8477C41.379 59.4789 40.0047 62.5658 36.0282 62.5658C32.0038 62.5658 30.475 59.609 30.4311 57.6232V56.4652C30.4311 55.7082 29.9131 55.3243 28.8901 55.3243H8.82307Z" fill="#1B2326"/>
<path d="M20.3728 23.0482C20.1857 23.0482 19.9954 23.0189 19.8076 22.9579C18.8415 22.6456 18.3105 21.608 18.6228 20.6427L21.6129 11.4017C21.9243 10.4364 22.9571 9.9038 23.928 10.2177C24.8941 10.53 25.4251 11.5668 25.1128 12.5336L22.1227 21.7747C21.8707 22.5521 21.1502 23.0482 20.3728 23.0482Z" fill="#1B2326"/>
<path d="M35.5037 23.0482C35.3435 23.0482 35.1817 23.027 35.0199 22.9831C34.0392 22.7156 33.4618 21.7056 33.7286 20.7249L36.926 8.98246C37.1935 8.00257 38.2051 7.42358 39.1842 7.69112C40.1649 7.95784 40.7431 8.96863 40.4756 9.94852L37.2765 21.6909C37.0537 22.5098 36.3129 23.0482 35.5037 23.0482Z" fill="#1B2326"/>
<path d="M50.9624 23.0482C50.764 23.0482 50.5623 23.0148 50.3631 22.9465C49.4035 22.6164 48.8937 21.5698 49.2238 20.6086L51.9732 12.6239C52.3042 11.6627 53.3524 11.1537 54.3111 11.4838C55.2715 11.814 55.7822 12.8614 55.4512 13.8217L52.7018 21.8056C52.4392 22.5692 51.7244 23.0482 50.9624 23.0482Z" fill="#1B2326"/>
<path d="M67.1025 49.4466H6.98446C5.9696 49.4466 5.14584 48.6229 5.14584 47.6072C5.14584 46.5915 5.9696 45.7678 6.98446 45.7678H67.1025C68.119 45.7678 68.9403 46.5915 68.9403 47.6072C68.9403 48.6229 68.119 49.4466 67.1025 49.4466Z" fill="#1B2326"/>
<path d="M68.1158 43.3762H5.97123C2.76077 43.3762 0.148811 40.7667 0.148811 37.5562C0.148811 34.3449 2.75995 31.7297 5.97123 31.7297H68.1158C71.3246 31.7297 73.9366 34.3441 73.9366 37.5562C73.9366 40.7667 71.3246 43.3762 68.1158 43.3762ZM5.97123 35.4086C4.78886 35.4086 3.82604 36.3714 3.82604 37.5554C3.82604 38.737 4.78886 39.699 5.97123 39.699H68.1158C69.299 39.699 70.2602 38.737 70.2602 37.5554C70.2602 36.3714 69.299 35.4086 68.1158 35.4086H5.97123Z" fill="#1B2326"/>
</svg>
