<svg width="22" height="22" viewBox="0 0 22 22" fill="none" xmlns="http://www.w3.org/2000/svg">
<path id="Vector" d="M21 7.99259H16.21L11.82 0.504345C11.42 -0.168115 10.55 -0.168115 10.16 0.504345L5.77 7.99259H1C0.45 7.99259 0 8.50548 0 9.13235C0 9.23493 0.00999996 9.33751 0.04 9.44009L2.58 20.0057C2.81 20.9631 3.58 21.6697 4.5 21.6697H17.5C18.42 21.6697 19.19 20.9631 19.43 20.0057L21.97 9.44009L22 9.13235C22 8.50548 21.55 7.99259 21 7.99259ZM10.99 3.19418L13.8 7.99259H8.18L10.99 3.19418ZM11 17.1107C9.9 17.1107 9 16.0849 9 14.8312C9 13.5774 9.9 12.5516 11 12.5516C12.1 12.5516 13 13.5774 13 14.8312C13 16.0849 12.1 17.1107 11 17.1107Z" fill="#FF4B3A"/>
</svg>
