<svg width="74" height="74" viewBox="0 0 74 74" fill="none" xmlns="http://www.w3.org/2000/svg">
<path d="M64.7012 47.8934C63.4644 48.0105 62.2942 48.122 61.3403 48.8083C59.9246 49.8264 58.9804 51.0909 58.0689 52.3156C56.4295 54.512 54.7356 56.7832 50.5079 56.9963C50.3233 57.006 50.1411 57.0109 49.959 57.0109C47.2031 57.0109 44.8798 55.9627 42.6281 54.947C41.3855 54.3876 40.0999 53.8086 38.7671 53.4215C35.7111 52.5343 34.0083 53.4784 31.6541 54.7893C31.0524 55.1251 30.423 55.4732 29.7383 55.8123C25.926 57.681 22.0309 56.3677 19.5726 52.3749C19.1595 51.7008 18.7789 50.9315 18.3764 50.1151C17.2599 47.8552 15.9962 45.2929 13.7957 44.7106C12.7353 44.4252 11.5855 44.5943 10.369 44.7757C8.34412 45.0709 6.05338 45.41 4.17735 43.3477C3.64065 42.7582 3.22105 42.0653 2.85349 41.3383C5.09138 54.8543 19.5035 65.3176 36.9032 65.3176C52.1741 65.3176 65.1468 57.2524 69.6031 46.1386C68.8891 46.7485 68.1182 47.186 67.2717 47.4584C66.4227 47.7316 65.5461 47.8129 64.7012 47.8934Z" fill="#FAE58F"/>
<path d="M36.9032 26.1822C31.7029 26.1822 27.3101 28.3144 27.3101 30.8377C27.3101 31.6313 27.7476 32.3868 28.5063 33.0495C29.6049 29.256 44.1991 29.256 45.2953 33.0495C46.054 32.3868 46.4923 31.6313 46.4923 30.8377C46.4923 28.3144 42.1011 26.1822 36.9032 26.1822Z" fill="#B07072"/>
<path d="M36.9032 10.0217C19.7954 10.0217 5.57359 20.1345 2.9722 33.3179C2.56805 35.9851 3.04702 40.069 5.1922 42.4215C6.57869 43.9446 8.24409 43.6998 10.1689 43.416C11.4708 43.2249 12.8118 43.0265 14.1503 43.3827C16.9533 44.1235 18.365 46.9827 19.6092 49.5052C19.9971 50.2932 20.363 51.034 20.7444 51.6544C22.8286 55.0397 25.9634 56.1367 29.1316 54.5762C29.796 54.2518 30.4042 53.9135 30.9873 53.5882C33.4309 52.2269 35.5485 51.0551 39.1517 52.1017C40.5764 52.5164 41.9076 53.1141 43.1932 53.6955C45.5474 54.7576 47.7894 55.761 50.4387 55.626C54.0241 55.4455 55.3227 53.702 56.967 51.4942C57.9412 50.1866 58.9495 48.8359 60.5385 47.6942C61.7949 46.79 63.205 46.6558 64.5727 46.5265C65.381 46.45 66.1462 46.3785 66.8521 46.1524C68.2109 45.7141 69.3689 44.7106 70.387 43.0851C70.4521 42.9802 70.544 42.9086 70.6448 42.8549C71.0416 41.1733 71.2596 39.442 71.2596 37.6693C71.2588 22.4244 55.8456 10.0217 36.9032 10.0217ZM43.6315 35.6208C42.2524 36.3153 40.2056 36.7227 38.0637 36.8333C38.045 36.8333 38.0254 36.8349 38.0043 36.8365C37.64 36.8536 37.2716 36.865 36.9032 36.865C36.5349 36.865 36.1649 36.8536 35.7981 36.8365C35.7794 36.8349 35.7599 36.8333 35.7396 36.8333C33.5993 36.7227 31.5549 36.3169 30.1749 35.6225C27.5849 34.5303 25.9366 32.8121 25.9366 30.8377C25.9366 27.4573 30.7531 24.8087 36.9032 24.8087C43.0493 24.8087 47.865 27.4564 47.865 30.8377C47.865 32.8105 46.2175 34.5287 43.6315 35.6208Z" fill="#F17897"/>
<path d="M37.0528 67.8604C16.7053 67.8604 0.151245 54.3176 0.151245 37.6701C0.151245 21.0233 16.7045 7.48213 37.0528 7.48213C57.398 7.48213 73.9496 21.0233 73.9496 37.6701C73.9496 54.3176 57.398 67.8604 37.0528 67.8604ZM37.0528 11.1911C18.7505 11.1911 3.85938 23.0701 3.85938 37.6709C3.85938 52.2716 18.7505 64.1523 37.0528 64.1523C55.3536 64.1523 70.2414 52.2716 70.2414 37.6709C70.2414 23.0701 55.3536 11.1911 37.0528 11.1911Z" fill="#1B2326"/>
<path d="M37.0529 38.0336C30.1343 38.0336 24.9185 34.9402 24.9185 30.8385C24.9185 26.736 30.1343 23.6426 37.0529 23.6426C43.9682 23.6426 49.1832 26.736 49.1832 30.8385C49.1832 34.941 43.9682 38.0336 37.0529 38.0336ZM37.0529 27.3515C31.9086 27.3515 28.6266 29.417 28.6266 30.8393C28.6266 32.2607 31.9086 34.3238 37.0529 34.3238C42.193 34.3238 45.4742 32.2607 45.4742 30.8393C45.475 29.4162 42.1938 27.3515 37.0529 27.3515Z" fill="#1B2326"/>
<path d="M29.5008 35.6835C28.838 35.6835 28.2355 35.3842 27.8459 34.8654C27.5621 34.4856 27.4182 34.0302 27.4182 33.5106C27.4182 30.17 32.6088 28.9836 37.0537 28.9836C37.0553 28.9836 37.0585 28.9836 37.0618 28.9836H37.0699C41.5099 28.9869 46.6859 30.1733 46.6859 33.5106C46.6859 34.7483 45.7897 35.6826 44.6033 35.6826C43.8015 35.6826 43.1477 35.276 42.1605 34.6637C40.8976 33.8782 38.9891 32.6934 37.0537 32.6934C35.1167 32.6934 33.2065 33.8798 31.9412 34.6637C30.9539 35.2769 30.3026 35.6818 29.5008 35.6835Z" fill="#1B2326"/>
<path d="M50.0964 58.1794C47.103 58.1794 44.6627 57.0784 42.2979 56.0123C41.035 55.4439 39.8453 54.9072 38.5938 54.5421C36.0014 53.7899 34.6361 54.5502 32.3713 55.8115C31.7549 56.153 31.119 56.5067 30.4018 56.858C26.0708 58.9878 21.4876 57.4671 18.7293 52.9873C18.2853 52.2643 17.8942 51.4731 17.4803 50.6323C16.4247 48.496 15.3359 46.2866 13.6477 45.8402C12.8126 45.6198 11.7814 45.7694 10.6885 45.9304C8.6092 46.237 5.76142 46.659 3.46335 44.1333C0.151244 40.5 0.00893635 34.3726 0.954673 31.376C1.26287 30.3985 2.30619 29.857 3.28283 30.1668C4.25865 30.475 4.80023 31.5167 4.49204 32.4933C3.7805 34.7458 4.08707 39.3127 6.20542 41.6352C7.09098 42.6077 7.99199 42.5785 10.1469 42.2597C11.4976 42.0605 13.0281 41.8336 14.6008 42.2548C17.9145 43.1306 19.5165 46.3785 20.8054 48.9896C21.1803 49.75 21.5348 50.4688 21.8885 51.0413C22.7204 52.3944 25.0567 55.3487 28.7681 53.5288C29.4105 53.2117 30.0009 52.8815 30.5661 52.5685C33.0178 51.2031 35.5485 49.7914 39.6282 50.9795C41.1318 51.4154 42.4979 52.0334 43.8202 52.6286C46.0426 53.6313 48.1358 54.5656 50.529 54.4575C53.5638 54.3054 54.6039 52.91 56.1798 50.7957C57.1581 49.4808 58.2697 47.991 60.0067 46.7436C61.5184 45.6564 63.1618 45.5002 64.6109 45.3636C65.355 45.2937 66.0568 45.227 66.6431 45.0392C67.7295 44.6895 68.6777 43.8478 69.5454 42.463C70.0878 41.5945 71.2311 41.3318 72.1004 41.8759C72.9697 42.4199 73.2315 43.5649 72.6891 44.4317C71.3392 46.5883 69.7324 47.9406 67.7791 48.57C66.8082 48.8823 65.8267 48.9742 64.9606 49.0571C63.8376 49.1628 62.8683 49.2555 62.1714 49.7573C60.9004 50.6697 60.0514 51.8081 59.1536 53.0133C57.4378 55.3146 55.4927 57.9241 50.7144 58.164C50.5062 58.1746 50.2997 58.1794 50.0964 58.1794Z" fill="#1B2326"/>
<path d="M11.3277 28.8429C10.8316 28.8429 10.334 28.6445 9.97046 28.2517C9.27275 27.5012 9.31422 26.3277 10.0648 25.6308L16.2117 19.9117C16.9639 19.214 18.1365 19.2563 18.8326 20.006C19.5303 20.7566 19.4896 21.9308 18.7382 22.6269L12.5914 28.3453C12.2336 28.6787 11.7798 28.8429 11.3277 28.8429Z" fill="#1B2326"/>
<path d="M21.5974 45.6775C20.9981 45.6775 20.411 45.388 20.0532 44.8513L15.9498 38.7004C15.3814 37.8473 15.6107 36.6959 16.4638 36.1274C17.3152 35.5607 18.4683 35.7883 19.0351 36.6414L23.1376 42.7931C23.706 43.6445 23.4759 44.796 22.6253 45.3636C22.3089 45.5751 21.9511 45.6775 21.5974 45.6775Z" fill="#1B2326"/>
<path d="M18.783 32.0705C18.0145 32.0705 17.2973 31.589 17.0306 30.8247C16.6931 29.857 17.2046 28.7998 18.1723 28.4623L22.4602 26.971C23.4255 26.6335 24.4842 27.1466 24.8209 28.1143C25.1584 29.0804 24.6469 30.1383 23.6792 30.475L19.3912 31.9664C19.1904 32.0371 18.9838 32.0705 18.783 32.0705Z" fill="#1B2326"/>
<path d="M43.0168 48.2903C42.4817 48.2903 41.9507 48.0601 41.5856 47.6161L38.0449 43.3258C37.3928 42.5362 37.505 41.3676 38.2954 40.7154C39.085 40.0641 40.2536 40.1747 40.9057 40.9651L44.4463 45.2563C45.0985 46.0451 44.9863 47.2136 44.1959 47.8658C43.8503 48.152 43.4323 48.2903 43.0168 48.2903Z" fill="#1B2326"/>
<path d="M55.3219 40.4585C54.673 40.4585 54.0444 40.1186 53.7037 39.5144C53.2011 38.6215 53.5174 37.4912 54.4095 36.9878L60.7475 33.4171C61.6404 32.9137 62.7723 33.2309 63.2732 34.1229C63.7766 35.0142 63.4603 36.147 62.5674 36.6479L56.2302 40.2186C55.9432 40.382 55.6301 40.4585 55.3219 40.4585Z" fill="#1B2326"/>
<path d="M58.4877 28.8429C57.646 28.8429 56.8841 28.268 56.6824 27.4133L54.6331 18.7106C54.3981 17.7137 55.017 16.7159 56.0123 16.4809C57.0125 16.2491 58.0095 16.8647 58.2437 17.8608L60.2929 26.5636C60.5279 27.5597 59.9091 28.5583 58.9138 28.7933C58.7698 28.8267 58.6283 28.8429 58.4877 28.8429Z" fill="#1B2326"/>
<path d="M44.9367 20.8851C44.352 20.8851 43.7747 20.6102 43.4152 20.0939C42.8281 19.2555 43.0314 18.0975 43.8722 17.5112L48.6668 14.1543C49.5068 13.5664 50.6615 13.7713 51.2503 14.6113C51.8374 15.4497 51.6333 16.6061 50.7949 17.194L45.9987 20.5492C45.6735 20.7761 45.3035 20.8851 44.9367 20.8851Z" fill="#1B2326"/>
<path d="M33.3211 21.6308C32.9316 21.6308 32.5372 21.508 32.2014 21.2543L26.7937 17.1509C25.9772 16.5329 25.8195 15.3692 26.4375 14.5544C27.0571 13.7363 28.2192 13.577 29.0356 14.1966L34.4433 18.2991C35.2598 18.9188 35.42 20.0816 34.7995 20.8981C34.4352 21.3787 33.8822 21.6308 33.3211 21.6308Z" fill="#1B2326"/>
<path d="M26.984 48.2903C26.4887 48.2903 25.9935 48.0927 25.6292 47.7032C24.9299 46.9534 24.9689 45.78 25.717 45.0798L28.5152 42.4671C29.2617 41.7693 30.4368 41.8067 31.1361 42.5541C31.8354 43.3038 31.7956 44.4772 31.0483 45.1774L28.2501 47.791C27.8923 48.1244 27.4377 48.2903 26.984 48.2903Z" fill="#1B2326"/>
</svg>
