<svg width="74" height="74" viewBox="0 0 74 74" fill="none" xmlns="http://www.w3.org/2000/svg">
<g clip-path="url(#clip0_2_226)">
<path d="M22.1707 54.2152C18.4764 54.2152 15.4701 57.2215 15.4701 60.9142C15.4701 64.6101 18.4764 67.6165 22.1707 67.6165C25.8667 67.6165 28.8714 64.6101 28.8714 60.9142C28.8714 57.2215 25.8675 54.2152 22.1707 54.2152Z" fill="#F69B77"/>
<path d="M31.6264 2.95837L28.5908 10.1778C37.714 12.0449 56.8596 19.1026 63.6936 45.4539L70.9725 42.3931C64.2287 6.55673 35.594 3.2438 31.6264 2.95837Z" fill="#DABE92"/>
<path d="M28.0574 11.4464L3.02667 70.9668L15.6652 65.6526C14.6935 64.3198 14.112 62.6877 14.112 60.915C14.112 56.4709 17.7275 52.8579 22.1707 52.8579C26.1594 52.8579 29.4699 55.7708 30.1099 59.5797L62.43 45.9873C55.7391 19.8889 36.7544 13.1606 28.0574 11.4464Z" fill="#FAE58F"/>
<path d="M62.6243 50.7746C55.7732 12.7922 24.1598 11.7359 23.8402 11.7294L23.9126 8.06194C24.2712 8.06844 32.8178 8.29451 42.3467 13.6079C51.121 18.5016 62.3885 28.8071 66.2341 50.1256L62.6243 50.7746Z" fill="#1B2326"/>
<path d="M36.9976 44.9082L43.6844 33.326L50.3696 44.9082H36.9976Z" fill="#ACD263"/>
<path d="M50.3696 46.7412H36.9976C36.3421 46.7412 35.7379 46.3915 35.4102 45.8231C35.0817 45.2563 35.0817 44.557 35.4102 43.9902L42.0962 32.4104C42.4223 31.842 43.0282 31.4931 43.6836 31.4931C44.339 31.4931 44.944 31.842 45.2717 32.4104L51.9569 43.9902C52.2855 44.557 52.2855 45.2563 51.9569 45.8231C51.63 46.3915 51.0258 46.7412 50.3696 46.7412ZM40.1755 43.0721H47.1933L43.6844 36.9959L40.1755 43.0721Z" fill="#1B2326"/>
<path d="M22.4252 69.8471C17.3436 69.8471 13.2118 65.7112 13.2118 60.6304C13.2118 55.5512 17.3436 51.4186 22.4252 51.4186C27.5052 51.4186 31.6387 55.5512 31.6387 60.6304C31.6387 65.7112 27.5052 69.8471 22.4252 69.8471ZM22.4252 55.0853C19.3668 55.0853 16.8793 57.5744 16.8793 60.6296C16.8793 63.6888 19.3668 66.1771 22.4252 66.1771C25.4828 66.1771 27.9712 63.688 27.9712 60.6296C27.9712 57.5744 25.4828 55.0853 22.4252 55.0853Z" fill="#1B2326"/>
<path d="M36.9976 26.5749C36.9976 28.5608 35.3899 30.1717 33.4049 30.1717C31.4167 30.1717 29.8049 28.5608 29.8049 26.5749C29.8049 24.59 31.4158 22.9799 33.4049 22.9799C35.3899 22.9799 36.9976 24.59 36.9976 26.5749Z" fill="#F69B77"/>
<path d="M33.4049 32.0054C30.4083 32.0054 27.9712 29.5699 27.9712 26.575C27.9712 23.5816 30.4083 21.1445 33.4049 21.1445C36.3982 21.1445 38.8313 23.5816 38.8313 26.575C38.8313 29.5699 36.3974 32.0054 33.4049 32.0054ZM33.4049 24.8144C32.4307 24.8144 31.6395 25.604 31.6395 26.5758C31.6395 27.5475 32.4307 28.3371 33.4049 28.3371C34.375 28.3371 35.1646 27.5475 35.1646 26.5758C35.1646 25.604 34.3742 24.8144 33.4049 24.8144Z" fill="#1B2326"/>
<path d="M22.6733 43.2656C21.0241 43.2656 19.6832 41.9238 19.6832 40.2731C19.6832 38.6215 21.0241 37.2797 22.6733 37.2797C24.3224 37.2797 25.6634 38.6215 25.6634 40.2731C25.6634 41.9238 24.3224 43.2656 22.6733 43.2656ZM22.6733 39.5965C22.2992 39.5965 21.9959 39.8998 21.9959 40.2731C21.9959 40.6447 22.2992 40.9464 22.6733 40.9464C23.0473 40.9464 23.3507 40.6447 23.3507 40.2731C23.3507 39.8998 23.0473 39.5965 22.6733 39.5965Z" fill="#1B2326"/>
<path d="M2.00775 73.7886C1.53122 73.7886 1.06202 73.6024 0.711532 73.2519C0.183774 72.7249 0.0276422 71.9321 0.316324 71.2441L29.748 1.25801C30.0359 0.577368 30.7019 0.134995 31.4394 0.134995C31.4508 0.134995 31.463 0.134995 31.476 0.134995C31.8346 0.143126 40.3812 0.369192 49.9101 5.68256C58.6844 10.5763 69.952 20.8826 73.7975 42.1979C73.9496 43.0428 73.4942 43.8796 72.703 44.2138L30.4961 61.964L29.0747 58.5828L69.9113 41.4091C63.3716 9.01093 38.4353 4.50587 32.6177 3.8968L5.44184 68.5224L16.3093 63.9515L17.7307 67.3343L2.71929 73.6463C2.48997 73.7414 2.24846 73.7886 2.00775 73.7886Z" fill="#1B2326"/>
</g>
<defs>
<clipPath id="clip0_2_226">
<rect width="74" height="74" fill="white"/>
</clipPath>
</defs>
</svg>
