<svg width="74" height="74" viewBox="0 0 74 74" fill="none" xmlns="http://www.w3.org/2000/svg">
<path d="M5.75005 58.5763C17.3006 58.8706 24.9884 51.2649 24.9396 39.7908C24.9193 39.3314 24.9193 38.532 24.8437 37.7457C23.8215 26.9401 18.7293 23.5808 8.66776 27.0555C5.72809 28.0671 2.8917 26.9344 2.24846 24.2411C1.51009 21.1355 2.94049 19.0586 6.01433 18.3975C8.83853 17.7876 9.83387 16.8931 7.67486 14.243C4.90352 10.8463 3.99112 6.7779 6.75352 4.97262C9.63952 3.08278 12.6792 5.5695 15.0464 9.4053C16.3906 11.5855 17.4876 11.8636 19.1806 9.71838C21.438 6.8519 23.9581 5.80858 26.357 7.80495C28.9007 9.92168 28.699 12.5344 25.6902 15.4961C23.1669 17.9771 21.2925 21.569 24.5436 23.7141C24.5436 23.7141 32.7519 28.7185 30.0895 43.943C30.0895 43.943 42.9477 39.3533 45.0733 30.4091C45.0733 30.4091 46.2825 23.4019 42.376 19.3855C38.7215 15.627 39.3217 10.3429 42.5045 7.15928C45.8239 3.83904 50.6502 3.55524 54.6998 6.82832C56.1595 8.00825 57.0792 8.01882 58.4104 7.01128C58.9227 6.62421 59.5846 6.40952 60.2067 6.1924C63.7059 4.96856 67.3611 4.17895 70.2374 7.17473C73.0819 10.1453 70.6253 14.2064 68.9981 17.4697C67.7376 19.9946 67.5571 21.6454 69.4307 24.0191C71.9093 27.1694 73.0835 31.4801 70.4301 34.3425C67.5734 37.4188 63.0675 38.4605 59.6334 35.9998C56.4449 33.7155 54.1273 34.7727 51.4137 36.4421C46.951 39.1883 43.6169 43.1493 39.9267 46.7363C33.1919 53.28 26.4473 59.8058 18.2975 64.6467C15.788 66.1422 13.1517 67.3449 10.3657 68.2052" fill="#C5DC76"/>
<path d="M10.3641 70.0341C9.58258 70.0341 8.85966 69.5299 8.61733 68.7444C8.31971 67.7783 8.85966 66.7545 9.82573 66.4569C12.3881 65.6656 14.9228 64.5288 17.3623 63.0748C25.4007 58.3006 32.1371 51.7536 38.654 45.4238C39.5176 44.583 40.3633 43.7226 41.2074 42.8623C43.9853 40.0267 46.8599 37.0959 50.4566 34.8841C53.3865 33.0821 56.5897 31.5663 60.7003 34.5125C63.4928 36.5129 67.035 35.3159 69.0916 33.0975C71.0189 31.0198 69.93 27.6085 67.9954 25.1494C65.5103 22.0008 65.9112 19.5645 67.3636 16.6516L67.7832 15.823C69.5039 12.4442 70.5122 10.1038 68.9184 8.43843C66.9098 6.34692 64.3271 6.68846 60.8142 7.91718L60.6735 7.96597C60.2246 8.1221 59.7603 8.28393 59.5106 8.47177C57.4825 10.0087 55.6423 9.93958 53.5516 8.24977C50.3419 5.65571 46.5151 5.73459 43.7999 8.45144C41.4644 10.7877 40.6317 14.9667 43.6876 18.1105C48.1943 22.7399 46.9339 30.3961 46.8786 30.7198C46.8721 30.7572 46.8639 30.7954 46.855 30.8312C44.5252 40.6301 31.2687 45.4653 30.7067 45.6661C30.0944 45.8857 29.4105 45.7613 28.9128 45.3425C28.4152 44.9237 28.1777 44.2699 28.2891 43.6291C30.7084 29.7911 23.6645 25.3194 23.5938 25.2755C21.6438 23.9914 21.1176 22.4041 21.0087 21.2933C20.7192 18.3089 23.0156 15.5636 24.4094 14.1925C25.6568 12.9638 26.3253 11.8189 26.2903 10.9666C26.2806 10.7519 26.2545 10.0973 25.1876 9.21015C24.372 8.53114 23.8012 8.58969 23.6141 8.61164C22.7465 8.70272 21.6828 9.49802 20.6183 10.8495C19.8483 11.8278 18.6277 13.1037 16.9436 13.0159C15.2708 12.9183 14.2186 11.5481 13.4908 10.3649C12.0303 8.00013 10.4681 6.48272 9.20364 6.20136C8.6954 6.0867 8.24733 6.18103 7.75617 6.50224C7.2894 6.80799 7.03243 7.21133 6.94461 7.77487C6.7283 9.1638 7.55287 11.1992 9.09305 13.0866C9.98592 14.1844 11.1024 15.8384 10.5056 17.5421C9.91599 19.218 8.10014 19.8182 6.40058 20.1849C5.66058 20.3443 4.68232 20.6891 4.21311 21.434C3.85043 22.0073 3.78944 22.8091 4.02852 23.8174C4.1814 24.4631 4.54082 24.9437 5.09379 25.2478C5.8777 25.6796 6.96331 25.7097 8.0725 25.3267C13.6688 23.3946 17.9202 23.436 21.064 25.4609C24.2565 27.5158 26.0886 31.4776 26.6652 37.5733C26.7246 38.1946 26.7408 38.8167 26.7538 39.2712C26.7587 39.4379 26.7628 39.5859 26.7677 39.7095C26.7961 45.9394 24.7859 51.1738 20.9583 54.9218C17.1322 58.6657 11.8603 60.5507 5.70287 60.4059C4.6937 60.3799 3.89678 59.5399 3.92199 58.5291C3.9472 57.5208 4.77258 56.7499 5.79801 56.7482C10.9374 56.8832 15.2977 55.343 18.3992 52.3074C21.5039 49.2685 23.1335 44.9424 23.1116 39.7998C23.1067 39.7356 23.1018 39.564 23.0969 39.3696C23.0856 38.959 23.0717 38.4377 23.0229 37.9205C22.5651 33.0821 21.2396 29.9253 19.083 28.5372C16.946 27.1604 13.7323 27.2409 9.26381 28.7844C7.17799 29.5024 5.01735 29.3812 3.3308 28.455C1.87601 27.6549 0.860341 26.3098 0.470011 24.6648C-1.0848e-05 22.6912 0.224429 20.8989 1.11893 19.4807C2.02808 18.0405 3.58696 17.0485 5.62968 16.6093C6.25177 16.4735 6.63641 16.3524 6.86735 16.2613C6.75839 16.0686 6.57298 15.7872 6.25665 15.3977C4.01551 12.6507 2.94779 9.66716 3.32836 7.21377C3.57557 5.61993 4.41315 4.31558 5.75166 3.4414C7.06089 2.5843 8.52869 2.30375 9.9965 2.62984C12.3165 3.14703 14.539 5.10111 16.6012 8.44331C16.8484 8.8434 17.0338 9.08492 17.1615 9.22641C17.2924 9.10769 17.4859 8.91171 17.7429 8.58481C19.4709 6.39083 21.3169 5.17511 23.2287 4.97344C24.7314 4.81406 26.2155 5.30766 27.5256 6.39733C29.06 7.67485 29.8724 9.15973 29.9415 10.8138C30.0237 12.7654 29.0234 14.7797 26.9726 16.798C25.4609 18.2845 24.5468 19.9101 24.6485 20.9371C24.677 21.2364 24.8022 21.6918 25.5503 22.1845C25.8496 22.3675 33.522 27.2247 32.325 40.9627C35.9681 39.1525 41.9572 35.433 43.2786 30.0513C43.3632 29.4764 44.1105 23.7914 41.0635 20.6606C36.9463 16.4256 37.0098 10.0648 41.2107 5.86551C45.2742 1.79876 51.1568 1.61417 55.848 5.40606C56.6458 6.05173 56.6458 6.0501 57.3053 5.55243C58.0136 5.0198 58.8186 4.73843 59.4659 4.51318L59.6017 4.46602C62.1722 3.56663 67.5132 1.6963 71.5564 5.90861C75.0677 9.57527 72.7387 14.1462 71.04 17.4835L70.6334 18.2853C69.5511 20.4557 69.5917 21.2721 70.8643 22.8847C73.7625 26.5692 75.1661 31.9225 71.7702 35.5867C68.0995 39.5412 62.5479 40.3398 58.5657 37.4855C56.4465 35.9689 55.1601 36.2828 52.37 38.0002C49.1547 39.9771 46.5598 42.6224 43.8153 45.4222C42.9509 46.3045 42.084 47.1868 41.1985 48.0471C34.5344 54.525 27.6402 61.224 19.2319 66.2194C16.5467 67.8198 13.7445 69.077 10.904 69.9528C10.7243 70.0089 10.5438 70.0341 10.3641 70.0341Z" fill="#1B2326"/>
<path d="M49.8508 31.0304C49.5141 31.0304 49.1734 30.9377 48.8693 30.7433C48.017 30.2001 47.7674 29.0706 48.309 28.2184C51.2942 23.5287 51.3682 18.8952 48.5391 13.6371C48.0601 12.7467 48.3944 11.6383 49.284 11.1594C50.1728 10.6788 51.2812 11.0146 51.7601 11.9042C55.2333 18.3601 55.1137 24.3395 51.395 30.1822C51.0462 30.7311 50.4542 31.0304 49.8508 31.0304Z" fill="#1B2326"/>
<path d="M51.5267 27.6906C51.2722 27.6906 51.0128 27.6378 50.7672 27.5255C49.8483 27.1051 49.4434 26.0195 49.8646 25.1014C51.9211 20.6045 58.451 12.6995 63.6042 11.0309C64.5654 10.7259 65.5965 11.2472 65.9071 12.2076C66.2186 13.1687 65.6908 14.1999 64.7305 14.5121C60.8451 15.7685 54.9682 22.7408 53.1913 26.6229C52.884 27.2938 52.2196 27.6906 51.5267 27.6906Z" fill="#1B2326"/>
<path d="M66.3422 31.0304C65.7965 31.0304 65.2566 30.7864 64.8963 30.3213C63.0943 27.9964 57.572 24.7802 52.3733 27.4841C51.4755 27.95 50.3728 27.6012 49.9069 26.7059C49.4401 25.8089 49.7881 24.7054 50.6851 24.2387C57.5541 20.6647 64.9516 24.4167 67.7864 28.0785C68.406 28.8771 68.2613 30.0261 67.4627 30.6449C67.1285 30.9043 66.7341 31.0304 66.3422 31.0304Z" fill="#1B2326"/>
<path d="M37.6432 55.5943C45.0343 54.9308 47.9301 57.9322 46.851 65.1306C46.5379 67.2351 47.6528 69.0013 49.5442 69.094C51.7301 69.2022 52.9434 67.9816 53.0043 65.8315C53.0588 63.8563 53.5354 63.0765 55.5895 64.1978C58.2177 65.6331 61.3054 65.2786 61.9372 63.6579C62.5634 62.0478 60.7955 59.7473 57.9184 58.6373C56.2839 58.003 55.9391 57.2817 57.1931 55.8968C59.1504 53.7297 59.2244 52.1952 57.585 50.8339C55.8416 49.3865 54.1078 49.8467 52.4953 52.2399" fill="#ACD263"/>
<path d="M49.8053 70.9302C49.6898 70.9302 49.5735 70.927 49.4531 70.9205C48.135 70.8562 46.9558 70.2667 46.1329 69.2632C45.1945 68.1198 44.7952 66.5154 45.0416 64.863C45.4872 61.8925 45.1823 59.8229 44.1325 58.7113C43.0582 57.5712 40.9293 57.1353 37.8075 57.4159C36.7991 57.4996 35.912 56.7653 35.8225 55.7586C35.7314 54.7527 36.4731 53.8647 37.4798 53.7736C41.8393 53.3824 44.8855 54.1761 46.7948 56.2018C48.679 58.2006 49.2881 61.2102 48.6603 65.4014C48.5668 66.0243 48.6806 66.6024 48.9612 66.9432C49.1287 67.1497 49.3434 67.2514 49.6329 67.2652C50.011 67.2863 50.5184 67.2522 50.7957 66.9985C51.0242 66.7854 51.1592 66.352 51.1771 65.777C51.1982 64.9639 51.2519 63.0521 52.7287 62.2047C54.203 61.3574 55.8472 62.2551 56.4669 62.5926C58.3218 63.6066 60.0059 63.2619 60.2515 62.9593C60.3238 62.6455 59.4464 61.1882 57.2589 60.3441C56.6515 60.1083 55.0487 59.4838 54.6771 57.9143C54.3079 56.3555 55.4593 55.0853 55.8383 54.6681C56.8995 53.4922 56.919 52.9718 56.9133 52.8799C56.9019 52.7278 56.7214 52.4961 56.4165 52.2424C56.1717 52.0391 55.8253 51.8097 55.5455 51.848C55.3935 51.8683 54.8397 52.0342 54.0119 53.2621C53.4483 54.0997 52.3123 54.3201 51.4747 53.7573C50.6363 53.1946 50.4143 52.057 50.9795 51.2194C52.1716 49.4458 53.5345 48.4407 55.0259 48.226C55.9131 48.0984 57.2784 48.2024 58.7527 49.4279C59.8676 50.3533 60.4775 51.4251 60.5629 52.6172C60.6629 54.0135 60.066 55.4008 58.6836 56.9727C60.9288 57.8664 62.7235 59.4236 63.4887 61.1549C63.9693 62.2446 64.0238 63.3383 63.6424 64.319C63.244 65.3387 62.3804 66.134 61.2078 66.561C59.3537 67.2367 56.9239 66.97 54.8332 65.8697C54.8332 65.873 54.8332 65.8779 54.8332 65.8828C54.7746 67.8913 53.9558 69.0574 53.2784 69.6844C52.6514 70.2634 51.5528 70.9302 49.8053 70.9302Z" fill="#1B2326"/>
</svg>
